<svg version="1.1" xmlns="http://www.w3.org/2000/svg" style="display: block;" viewBox="0 0 2048 2048" width="640" height="640">
<path transform="translate(0,0)" fill="rgb(0,0,0)" d="M 406.333 571.169 L 512.706 571.07 C 534.475 571.071 557.279 569.694 578.94 571.256 C 600.076 572.779 607.552 619.829 586.509 623.028 C 571.766 625.269 554.519 623.64 539.5 623.648 L 372.401 623.759 C 348.024 623.751 342.674 611.55 351.311 587 C 356.281 572.873 366.753 571.443 379.626 571.303 L 406.333 571.169 z"/>
<path transform="translate(0,0)" fill="rgb(0,0,0)" d="M 372.759 1311.14 L 579.97 1311.07 C 606.53 1312.36 611.55 1360.72 580.25 1364.87 L 384.863 1365.54 C 373.829 1365.53 362.833 1365.81 351.889 1364.17 C 347.576 1341.29 345.399 1316.95 372.759 1311.14 z"/>
<path transform="translate(0,0)" fill="rgb(0,0,0)" d="M 367.975 989.206 L 556.069 989.42 C 565.076 989.453 574.712 988.885 583.61 990.404 L 587.241 990.992 C 613.592 996.845 610.053 1067.55 591.926 1075.5 L 585.647 1077.53 C 585.001 1077.76 575.364 1078.68 573.107 1078.73 L 394.752 1079.14 C 378.554 1079.14 357.035 1083.97 350.651 1064.61 L 350.152 1062.65 C 344.832 1042.58 339.906 995.557 367.975 989.206 z"/>
<path transform="translate(0,0)" fill="rgb(0,0,0)" d="M 375.68 1412.47 L 587.105 1412.32 C 590.54 1412.74 592.644 1413.96 594.764 1416.67 L 595.5 1417.64 C 597.563 1420.23 599.193 1422.27 600.129 1425.51 L 600.5 1426.89 C 604.047 1439.73 602.465 1456.6 601.67 1469.89 C 600.442 1490.38 596.166 1503.28 574.761 1505.63 L 388.989 1506 C 373.137 1506.03 362.333 1508.36 352.199 1493.43 L 350.065 1490.29 C 346.36 1483.23 348.021 1470.16 348.049 1462.31 C 348.173 1426.22 338.471 1413.62 375.68 1412.47 z"/>
<path transform="translate(0,0)" fill="rgb(0,0,0)" d="M 376.481 670.461 L 559.374 670.217 C 588.605 670.237 599.99 668.872 601.758 705 C 602.864 727.574 606.588 763.135 576.25 763.993 L 390.009 764.885 C 374.497 764.866 362.275 765.714 352.379 751.439 L 350.587 748.921 C 344.375 740.362 348.844 688.334 350.856 676.636 C 359.775 670.601 365.901 670.775 376.481 670.461 z"/>
<path transform="translate(0,0)" fill="rgb(0,0,0)" d="M 550.347 299.414 L 1533.2 299.099 C 1548.99 299.104 1565.2 298.285 1580.91 299.53 C 1614.92 302.226 1645.93 334.877 1652.43 367 C 1655.12 380.242 1653.72 395.648 1653.72 409.214 L 1653.64 1693.45 C 1653.12 1708.04 1648.99 1722.72 1640.61 1734.8 L 1639.77 1735.99 C 1611.59 1776.45 1579.69 1773.04 1536.79 1773.06 L 1086.25 1773.08 L 573.019 1773.08 C 556.473 1773.08 541.509 1773.66 525.502 1768.64 C 472.355 1752 470.564 1705.93 470.55 1661.77 L 470.287 1552.67 C 470.223 1547.32 469.3 1539.95 470.933 1534.95 L 546.743 1535 C 605.834 1534.91 630.728 1533.97 629.974 1462.03 L 629.975 1362.5 C 630.125 1335.91 633.127 1307.56 602.794 1295.04 L 601.5 1294.52 C 591.927 1290.44 582.652 1291.04 572.433 1291.02 L 471.628 1291.02 L 470.898 1113.11 L 532.86 1113.08 C 565.306 1113.27 611.662 1120.14 628.773 1083.52 L 629.35 1082.24 C 631.092 1078.54 632.028 1075.77 632.379 1071.66 L 632.505 1070 C 633.931 1052.78 633.422 1035.37 633.226 1018.1 C 632.752 976.357 621.603 959.335 574.901 959.145 L 470.974 958.906 L 470.52 799.022 C 493.911 800.687 517.739 799.933 541.199 799.895 C 575.885 799.839 626.155 796.944 629.536 750.448 C 630.323 739.621 629.751 728.315 629.747 717.445 L 629.754 611.944 C 629.692 547.079 601.784 549.058 544.969 548.938 L 471.009 548.746 L 470.51 437.47 C 470.507 415.821 468.559 392.223 471.483 370.89 L 471.687 369.5 C 477.061 330.592 511.88 301.742 550.347 299.414 z M 1102.57 1553.32 L 786.619 1553.67 L 787.374 1623.05 L 1156.25 1623.21 L 1470.76 1623.04 L 1470.96 1553.55 L 1102.57 1553.32 z M 804.678 1147.64 L 786.814 1148.05 L 786.355 1198.13 L 1453.11 1198.17 L 1470.7 1198.96 L 1470.98 1149.82 C 1444.9 1146.18 1416.87 1147.83 1390.5 1147.8 L 804.678 1147.64 z M 1261.33 1365.63 L 786.212 1366.1 L 786.284 1408.91 L 994.5 1408.92 L 1470.88 1408.91 L 1470.83 1377.8 C 1470.83 1374.54 1471.55 1368.8 1470.16 1365.97 L 1261.33 1365.63 z M 1064.4 1456.64 L 786.332 1457.12 L 786.35 1498.2 L 1192.62 1498.3 L 1470.46 1498.12 L 1470.54 1456.93 L 1064.4 1456.64 z M 985.541 1272.13 L 786.342 1272.6 L 786.33 1313.89 L 1271.91 1313.83 L 1456.97 1313.88 C 1460.89 1313.88 1467.32 1314.68 1470.87 1313.38 L 1471 1272.65 L 985.541 1272.13 z"/>
</svg>